<svg width="18" height="25" viewBox="0 0 18 25" fill="none" xmlns="http://www.w3.org/2000/svg">
<path fill-rule="evenodd" clip-rule="evenodd" d="M4.58013 5.93657L7.11195 1.55135C8.34823 -0.513087 11.3999 -0.539882 12.6481 1.60772L17.9088 10.7467L7.3332 10.7501C4.8735 10.7588 3.3427 8.07983 4.58013 5.93657ZM10.8301 22.476L13.3619 18.0908C14.5316 15.9879 13.029 13.3317 10.545 13.3246L0 13.3381L5.28488 22.4986C6.50718 24.6331 9.59266 24.6193 10.8301 22.476Z" fill="white"/>
<path fill-rule="evenodd" clip-rule="evenodd" d="M4.58013 5.93657L7.11195 1.55135C8.34823 -0.513087 11.3999 -0.539882 12.6481 1.60772L17.9088 10.7467L7.3332 10.7501C4.8735 10.7588 3.3427 8.07983 4.58013 5.93657ZM10.8301 22.476L13.3619 18.0908C14.5316 15.9879 13.029 13.3317 10.545 13.3246L0 13.3381L5.28488 22.4986C6.50718 24.6331 9.59266 24.6193 10.8301 22.476Z" fill="url(#paint0_linear)"/>
<defs>
<linearGradient id="paint0_linear" x1="10.5" y1="2.77874e-07" x2="6.88288" y2="24.0915" gradientUnits="userSpaceOnUse">
<stop stop-color="#FF57F8"/>
<stop offset="1" stop-color="#FF003D"/>
</linearGradient>
</defs>
</svg>
